<?xml version="1.0" encoding="utf-8"?>
<!-- Generator: Adobe Illustrator 24.0.2, SVG Export Plug-In . SVG Version: 6.00 Build 0)  -->
<svg version="1.1" id="Layer_1" xmlns="http://www.w3.org/2000/svg" xmlns:xlink="http://www.w3.org/1999/xlink" x="0px" y="0px"
	 viewBox="0 0 209.2 42.5" style="enable-background:new 0 0 209.2 42.5;" xml:space="preserve">
<style type="text/css">
	.st0{fill:#1A1A1A;}
	.st1{fill:#FE3E57;}
</style>
<path class="st0" d="M0,42.05V7.75h0.55l16.23,18.97L32.85,7.75h0.55v34.3h-5.04V24.43l0.2-4.89c-1.1,1.7-2.11,3.06-3.05,4.09
	l-8.54,10.29h-0.6L7.84,23.63l-3-4.09c0.13,2,0.2,3.63,0.2,4.89v17.62H0z"/>
<path class="st0" d="M90.82,31.57l7.19,10.49h-6.09l-6.09-8.94c-1.27,0.13-2.21,0.2-2.85,0.2h-3.2v8.74h-5.29V8.1h8.49
	c4.66,0,8.26,1.13,10.81,3.4c2.55,2.26,3.82,5.36,3.82,9.29C97.61,25.98,95.35,29.57,90.82,31.57z M79.79,28.77h3
	c6.29,0,9.44-2.66,9.44-7.99c0-5.36-3.15-8.04-9.44-8.04h-3V28.77z"/>
<path class="st1" d="M120.58,42.5c-4.89,0-9.02-1.65-12.38-4.94c-3.36-3.3-5.04-7.46-5.04-12.48c0-4.99,1.68-9.14,5.04-12.43
	c3.36-3.3,7.49-4.94,12.38-4.94c6.06,0,10.59,2.25,13.58,6.74l-4.04,2.9c-2.1-3.26-5.28-4.89-9.54-4.89c-3.5,0-6.37,1.2-8.64,3.59
	c-2.26,2.4-3.4,5.41-3.4,9.04c0,3.63,1.13,6.65,3.4,9.06c2.26,2.41,5.14,3.62,8.64,3.62c4.29,0,7.64-1.78,10.04-5.34l4.04,2.85
	C131.5,40.09,126.8,42.5,120.58,42.5z"/>
<path class="st1" d="M140.65,42.05V8.1h5.29v15.27h16.33V8.1h5.29v33.95h-5.29V28.07h-16.33v13.98H140.65z"/>
<path class="st1" d="M191.73,42.5c-4.93,0-9.08-1.65-12.46-4.94c-3.38-3.3-5.07-7.46-5.07-12.48c0-5.03,1.69-9.19,5.07-12.48
	c3.38-3.3,7.53-4.94,12.46-4.94c4.89,0,9.03,1.65,12.41,4.94c3.38,3.29,5.07,7.46,5.07,12.48c0,5.03-1.69,9.19-5.07,12.48
	C200.75,40.86,196.62,42.5,191.73,42.5z M183.01,34.14c2.28,2.41,5.18,3.62,8.71,3.62c3.53,0,6.42-1.21,8.69-3.62
	c2.26-2.41,3.4-5.43,3.4-9.06c0-3.63-1.13-6.65-3.4-9.06c-2.26-2.41-5.16-3.62-8.69-3.62c-3.53,0-6.43,1.21-8.71,3.62
	c-2.28,2.41-3.42,5.43-3.42,9.06C179.59,28.71,180.73,31.73,183.01,34.14z"/>
<polygon class="st0" points="54.07,7.75 53.47,7.75 38.94,42.05 44.04,42.05 53.67,17.19 63.46,42.05 68.95,42.05 "/>
</svg>
