<?xml version="1.0" encoding="UTF-8"?>
<svg xmlns="http://www.w3.org/2000/svg" xmlns:xlink="http://www.w3.org/1999/xlink" width="10px" height="10px" viewBox="0 0 10 10" version="1.1">
<g id="surface1">
<path style=" stroke:none;fill-rule:nonzero;fill:rgb(0%,0%,0%);fill-opacity:1;" d="M 9.898438 2.683594 L 9.398438 2.183594 C 9.328125 2.117188 9.253906 2.082031 9.167969 2.082031 C 9.078125 2.082031 9.003906 2.117188 8.9375 2.183594 L 5 6.121094 L 1.0625 2.183594 C 0.996094 2.117188 0.917969 2.082031 0.832031 2.082031 C 0.746094 2.082031 0.667969 2.117188 0.601562 2.183594 L 0.101562 2.683594 C 0.0351562 2.75 0 2.828125 0 2.914062 C 0 3 0.0351562 3.078125 0.101562 3.144531 L 4.769531 7.8125 C 4.835938 7.878906 4.910156 7.914062 5 7.914062 C 5.085938 7.914062 5.164062 7.878906 5.230469 7.8125 L 9.898438 3.144531 C 9.964844 3.078125 9.996094 3 9.996094 2.914062 C 9.996094 2.828125 9.964844 2.75 9.898438 2.683594 Z M 9.898438 2.683594 "/>
</g>
</svg>
